<svg width="1024" height="1024" viewBox="0 0 1024 1024" fill="none" xmlns="http://www.w3.org/2000/svg">
<g clip-path="url(#clip0_2_2)">
<path d="M511.5 83L955.338 342.5H67.662L511.5 83Z" fill="#659AD2"/>
<rect x="67" y="891" width="887" height="50" fill="#659AD2"/>
<rect x="108" y="842" width="808" height="49" fill="#00599C"/>
<path d="M210.945 816C193.745 816 178.345 813.4 164.745 808.2C151.545 802.6 141.145 793.4 133.545 780.6C125.945 767.4 122.145 749.6 122.145 727.2V374.4H170.145V720.6C170.145 735 172.545 746 177.345 753.6C182.145 760.8 188.545 765.8 196.545 768.6C204.545 771 212.745 772.2 221.145 772.2H379.545V816H210.945ZM411.481 816V374.4H459.481V816H411.481ZM522.106 816V374.4H681.706C719.706 374.4 748.106 383.8 766.906 402.6C786.106 421.4 795.706 449.8 795.706 487.8C795.706 506.2 792.906 522.2 787.306 535.8C781.706 549.4 774.106 560.6 764.506 569.4C755.306 577.8 744.906 583.6 733.306 586.8C741.306 588.8 749.706 592.2 758.506 597C767.706 601.4 776.306 607.8 784.306 616.2C792.306 624.6 798.706 635.2 803.506 648C808.706 660.8 811.306 676 811.306 693.6C811.306 724.8 806.306 749.4 796.306 767.4C786.306 785 772.106 797.6 753.706 805.2C735.306 812.4 713.306 816 687.706 816H522.106ZM570.106 773.4H686.506C702.506 773.4 716.306 771 727.906 766.2C739.906 761 749.106 752.2 755.506 739.8C762.306 727 765.706 709 765.706 685.8C765.706 669.4 762.106 655.4 754.906 643.8C748.106 632.2 738.706 623.4 726.706 617.4C714.706 611 701.306 607.8 686.506 607.8H570.106V773.4ZM570.106 570H684.706C703.506 570 718.906 563.2 730.906 549.6C743.306 536 749.706 517.6 750.106 494.4C750.906 466 744.706 446.2 731.506 435C718.706 423.4 702.106 417.6 681.706 417.6H570.106V570ZM853.63 816V374.4H901.63V816H853.63Z" fill="#004482"/>
</g>
<defs>
<clipPath id="clip0_2_2">
<rect width="1024" height="1024" fill="white"/>
</clipPath>
</defs>
</svg>
